# Blender v2.92.0 OBJ File: 't_rock4.blend'
# www.blender.org
mtllib t_rock4.mtl
o Icosphere
v -20.877193 -8.212685 -2.510948
v -7.920828 33.263260 -46.899311
v 31.810390 26.725943 13.166664
v 9.043236 23.454273 72.886841
v -63.763947 25.870033 27.719387
v -45.316975 30.571978 -47.672913
v 21.533749 68.623581 -29.219791
v 21.671612 69.068840 41.647915
v -33.636902 65.827553 47.114700
v -58.106895 69.880692 -17.709057
v -32.307522 71.443069 -80.711029
v -20.912382 97.179092 -0.735274
v 14.058372 1.619968 7.884370
v -9.663066 8.341484 -38.462444
v 17.738220 21.078503 -32.435921
v -26.248444 29.678291 -53.578236
v -37.457077 6.452641 -35.098839
v -9.956243 1.118462 46.378235
v 29.356434 16.725502 62.029346
v -43.833790 10.440285 13.331206
v -34.824318 25.414808 51.732601
v -53.548042 25.299614 -16.020618
v -14.055074 51.561100 -71.588715
v -43.384506 48.638435 -73.483414
v 39.229637 42.074848 -5.676215
v 7.594858 48.638435 -50.880054
v 9.011482 48.638435 62.271587
v 44.206295 48.638435 45.593571
v -50.198105 48.638435 43.636684
v -20.862741 48.638435 63.019444
v -67.889725 48.638435 -49.265614
v -70.307281 48.638435 4.610951
v -3.867015 70.180283 -67.779823
v 24.029495 69.496246 11.827651
v -6.550613 72.450035 61.624012
v -52.510403 68.743713 19.319626
v -44.598839 83.291962 -62.612385
v 16.032391 90.087601 -15.765565
v -25.406591 91.197594 -48.641155
v 7.632635 85.728149 30.503643
v -36.303349 88.949799 19.471279
v -47.016289 86.430046 -11.718713
vt 0.818181 0.000000
vt 0.772726 0.078731
vt 0.863635 0.078731
vt 0.727272 0.157461
vt 0.681818 0.078731
vt 0.636363 0.157461
vt 0.090909 0.000000
vt 0.045454 0.078731
vt 0.136363 0.078731
vt 0.272727 0.000000
vt 0.227273 0.078731
vt 0.318182 0.078731
vt 0.454545 0.000000
vt 0.409090 0.078731
vt 0.500000 0.078731
vt 0.681818 0.236191
vt 0.909090 0.157461
vt 0.818181 0.157461
vt 0.863635 0.236191
vt 0.181818 0.157461
vt 0.090909 0.157461
vt 0.136363 0.236191
vt 0.363636 0.157461
vt 0.272727 0.157461
vt 0.318182 0.236191
vt 0.545454 0.157461
vt 0.454545 0.157461
vt 0.500000 0.236191
vt 0.772726 0.236191
vt 0.954545 0.236191
vt 0.227273 0.236191
vt 0.409090 0.236191
vt 0.590909 0.236191
vt 0.818181 0.314921
vt 0.727272 0.314921
vt 0.772726 0.393651
vt 1.000000 0.314921
vt 0.909091 0.314921
vt 0.954545 0.393651
vt 0.272727 0.314921
vt 0.181818 0.314921
vt 0.227273 0.393651
vt 0.454545 0.314921
vt 0.363636 0.314921
vt 0.409090 0.393651
vt 0.636363 0.314921
vt 0.545454 0.314921
vt 0.590909 0.393651
vt 0.500000 0.393651
vt 0.545454 0.472382
vt 0.318182 0.393651
vt 0.363636 0.472382
vt 0.136363 0.393651
vt 0.181818 0.472382
vt 0.090909 0.314921
vt 0.863635 0.393651
vt 0.909090 0.472382
vt 0.681818 0.393651
vt 0.727272 0.472382
vt 0.045454 0.236191
vt 0.000000 0.157461
vt 0.590909 0.078731
vt 0.636363 0.000000
vn 0.3407 -0.8898 -0.3034
vn 0.3790 -0.3204 -0.8681
vn 0.2319 -0.9637 0.1321
vn -0.4895 -0.8299 0.2677
vn -0.6391 -0.7688 -0.0208
vn 0.3606 -0.7043 -0.6115
vn 0.7889 -0.5904 -0.1703
vn 0.5277 0.3305 0.7825
vn -0.6324 -0.1540 0.7592
vn -0.5879 -0.7592 -0.2793
vn 0.4831 -0.6417 -0.5956
vn 0.8866 -0.4617 -0.0270
vn 0.0231 0.3883 0.9212
vn -0.8701 0.2050 0.4483
vn -0.5119 -0.6853 -0.5180
vn 0.7400 0.4830 -0.4680
vn 0.7400 0.6692 0.0681
vn -0.4758 0.6515 0.5909
vn -0.8454 0.5146 0.1436
vn 0.0367 0.8473 -0.5298
vn -0.3491 0.9333 -0.0838
vn -0.3334 0.9399 -0.0738
vn -0.8158 0.5735 -0.0741
vn -0.4031 0.9129 0.0647
vn -0.7630 0.6104 0.2128
vn -0.6718 0.5350 0.5123
vn -0.0226 0.9318 0.3622
vn -0.0280 0.9240 0.3815
vn 0.4526 0.7269 0.5164
vn 0.2391 0.9617 0.1340
vn 0.7943 0.5742 0.1983
vn 0.9563 0.2853 -0.0642
vn 0.1335 0.9818 -0.1351
vn 0.3819 0.8049 -0.4542
vn 0.2834 0.7881 -0.5464
vn -0.7598 0.1702 -0.6275
vn -0.6895 0.1947 -0.6977
vn -0.8428 0.5297 -0.0953
vn -0.7895 0.5981 0.1377
vn -0.8101 0.4117 0.4174
vn -0.6685 0.5407 0.5106
vn -0.5074 0.3511 0.7870
vn 0.0250 0.0435 0.9987
vn 0.5630 0.3878 0.7298
vn 0.6642 0.7449 0.0632
vn 0.8209 0.5509 -0.1502
vn 0.8553 0.5143 -0.0629
vn 0.8353 0.0132 -0.5497
vn 0.6600 -0.2138 -0.7202
vn 0.4121 -0.0393 -0.9103
vn -0.8839 0.4660 -0.0397
vn -0.8270 -0.5610 -0.0371
vn -0.8706 -0.4506 -0.1975
vn -0.5183 0.3406 0.7844
vn -0.5498 -0.0739 0.8320
vn -0.4342 -0.1690 0.8848
vn 0.3596 0.5431 0.7588
vn 0.4138 0.2572 0.8733
vn 0.8966 -0.4405 -0.0451
vn 0.8215 0.0433 -0.5686
vn 0.8098 -0.0900 -0.5798
vn 0.2516 -0.4726 -0.8446
vn 0.0945 -0.3422 -0.9349
vn 0.1141 -0.6685 -0.7349
vn -0.2139 -0.7927 -0.5709
vn -0.8532 -0.4311 -0.2937
vn -0.7851 -0.6171 -0.0526
vn -0.6697 -0.7280 -0.1469
vn -0.3540 -0.8402 0.4107
vn -0.5909 -0.6950 0.4097
vn -0.3816 -0.5537 0.7401
vn 0.0677 -0.7864 0.6140
vn 0.3019 -0.9369 0.1761
vn 0.8216 -0.5652 -0.0744
vn -0.2757 -0.5135 -0.8126
vn -0.0550 -0.6053 -0.7941
vn 0.0116 -0.9096 -0.4152
vn 0.8203 -0.5408 -0.1861
vn 0.4571 -0.8166 -0.3524
vn 0.3439 -0.3226 -0.8819
usemtl Material.002
s off
f 1/1/1 14/2/1 13/3/1
f 2/4/2 14/5/2 16/6/2
f 1/7/3 13/8/3 18/9/3
f 1/10/4 18/11/4 20/12/4
f 1/13/5 20/14/5 17/15/5
f 2/4/6 16/6/6 23/16/6
f 3/17/7 15/18/7 25/19/7
f 4/20/8 19/21/8 27/22/8
f 5/23/9 21/24/9 29/25/9
f 6/26/10 22/27/10 31/28/10
f 2/4/11 23/16/11 26/29/11
f 3/17/12 25/19/12 28/30/12
f 4/20/13 27/22/13 30/31/13
f 5/23/14 29/25/14 32/32/14
f 6/26/15 31/28/15 24/33/15
f 7/34/16 33/35/16 38/36/16
f 8/37/17 34/38/17 40/39/17
f 9/40/18 35/41/18 41/42/18
f 10/43/19 36/44/19 42/45/19
f 11/46/20 37/47/20 39/48/20
f 39/48/21 42/49/21 12/50/21
f 39/48/22 37/47/22 42/49/22
f 37/47/23 10/43/23 42/49/23
f 42/45/24 41/51/24 12/52/24
f 42/45/25 36/44/25 41/51/25
f 36/44/26 9/40/26 41/51/26
f 41/42/27 40/53/27 12/54/27
f 41/42/28 35/41/28 40/53/28
f 35/41/29 8/55/29 40/53/29
f 40/39/30 38/56/30 12/57/30
f 40/39/31 34/38/31 38/56/31
f 34/38/32 7/34/32 38/56/32
f 38/36/33 39/58/33 12/59/33
f 38/36/34 33/35/34 39/58/34
f 33/35/35 11/46/35 39/58/35
f 24/33/36 37/47/36 11/46/36
f 24/33/37 31/28/37 37/47/37
f 31/28/38 10/43/38 37/47/38
f 32/32/39 36/44/39 10/43/39
f 32/32/40 29/25/40 36/44/40
f 29/25/41 9/40/41 36/44/41
f 30/31/42 35/41/42 9/40/42
f 30/31/43 27/22/43 35/41/43
f 27/22/44 8/55/44 35/41/44
f 28/30/45 34/38/45 8/37/45
f 28/30/46 25/19/46 34/38/46
f 25/19/47 7/34/47 34/38/47
f 26/29/48 33/35/48 7/34/48
f 26/29/49 23/16/49 33/35/49
f 23/16/50 11/46/50 33/35/50
f 31/28/51 32/32/51 10/43/51
f 31/28/52 22/27/52 32/32/52
f 22/27/53 5/23/53 32/32/53
f 29/25/54 30/31/54 9/40/54
f 29/25/55 21/24/55 30/31/55
f 21/24/56 4/20/56 30/31/56
f 27/22/57 28/60/57 8/55/57
f 27/22/58 19/21/58 28/60/58
f 19/21/59 3/61/59 28/60/59
f 25/19/60 26/29/60 7/34/60
f 25/19/61 15/18/61 26/29/61
f 15/18/62 2/4/62 26/29/62
f 23/16/63 24/33/63 11/46/63
f 23/16/64 16/6/64 24/33/64
f 16/6/65 6/26/65 24/33/65
f 17/15/66 22/27/66 6/26/66
f 17/15/67 20/14/67 22/27/67
f 20/14/68 5/23/68 22/27/68
f 20/12/69 21/24/69 5/23/69
f 20/12/70 18/11/70 21/24/70
f 18/11/71 4/20/71 21/24/71
f 18/9/72 19/21/72 4/20/72
f 18/9/73 13/8/73 19/21/73
f 13/8/74 3/61/74 19/21/74
f 16/6/75 17/62/75 6/26/75
f 16/6/76 14/5/76 17/62/76
f 14/5/77 1/63/77 17/62/77
f 13/3/78 15/18/78 3/17/78
f 13/3/79 14/2/79 15/18/79
f 14/2/80 2/4/80 15/18/80
